<svg id="Capa_1" data-name="Capa 1" xmlns="http://www.w3.org/2000/svg" viewBox="0 0 1771 2008.4"><defs><style>.cls-1{fill:#1572b6;}.cls-2{fill:#33a9dc;}.cls-3{fill:#fff;}.cls-4{fill:#ebebeb;}</style></defs><title>css-5</title><path class="cls-1" d="M161.2,2299.1,0,491.4H1771L1609.6,2298.8l-725.2,201Z" transform="translate(0 -491.4)"/><path class="cls-2" d="M885.5,2346.2l586-162.5L1609.3,639.2H885.5Z" transform="translate(0 -491.4)"/><path class="cls-3" d="M885.5,1294.1h293.4l20.2-227H885.5V845.5h556l-5.3,59.5-54.5,611H885.5Z" transform="translate(0 -491.4)"/><path class="cls-4" d="M886.7,1869.9h-1l-246.9-66.7L623,1626.4H400.6l31.1,348.1,454.2,126.4h1.3v-231Z" transform="translate(0 -491.4)"/><path class="cls-3" d="M1160.1,1506.3,1133.4,1803l-247.3,66.7v231l454.5-126,3.3-37.5,38.6-431H1160.1Z" transform="translate(0 -491.4)"/><path class="cls-4" d="M886.3,845.5v221.7H350.9l-4.6-49.8L336.2,905l-5.3-59.5Zm-.8,448.6v221.7H641.4l-4.3-49.8L627,1353.6l-5.3-59.5H885.5Z" transform="translate(0 -491.4)"/></svg>