<svg id="Capa_1" data-name="Capa 1" xmlns="http://www.w3.org/2000/svg" viewBox="0 0 2209.58 2500"><defs><style>.cls-1{fill:#fff;}.cls-2{fill:#8ed6fb;}.cls-3{fill:#1c78c0;}</style></defs><title>webpack-icon</title><path class="cls-1" d="M1250,0,2354.79,625V1875L1250,2500,145.21,1875V625Z" transform="translate(-145.21 0)"/><path class="cls-2" d="M2157.5,1831.87l-871,492.71V1940.83l542.71-298.54Zm59.58-53.95V747.5l-318.75,184v662.29l318.75,184.17ZM339,1831.87l871,492.71V1940.83L667.29,1642.29,339,1831.87Zm-59.59-53.95V747.5l318.75,184v662.29L279.37,1777.92Zm37.3-1097.09L1210,175.42v371L637.71,861.25l-4.38,2.5Zm1863.12,0L1286.46,175.42v371l572.29,314.79,4.37,2.5Z" transform="translate(-145.21 0)"/><path class="cls-3" d="M1210,1853.54,674.58,1559.17V975.83L1210,1285v568.54m76.46,0,535.41-294.37V975.83L1286.46,1285v568.54M710.83,908.33l537.5-295.62,537.5,295.62-537.5,310.42L710.83,908.33" transform="translate(-145.21 0)"/></svg>